<svg width="365" height="540" viewBox="0 0 365 540" fill="none" xmlns="http://www.w3.org/2000/svg">
<path d="M602 270C602 419.117 481.117 540 332 540C182.883 540 62 419.117 62 270C62 120.883 182.883 0 332 0C481.117 0 602 120.883 602 270Z" fill="#5956E9"/>
<path d="M58 52C58 68.0163 45.0163 81 29 81C12.9837 81 0 68.0163 0 52C0 35.9837 12.9837 23 29 23C45.0163 23 58 35.9837 58 52Z" fill="#FAB8C3"/>
<path d="M151 424C151 454.376 126.376 479 96 479C65.6243 479 41 454.376 41 424C41 393.624 65.6243 369 96 369C126.376 369 151 393.624 151 424Z" fill="#FFDC5F"/>
</svg>
