<svg width="1440" height="721" viewBox="0 0 1440 721" fill="none" xmlns="http://www.w3.org/2000/svg">
<path d="M1905 205C1905 489.979 1673.98 721 1389 721C1104.02 721 873 489.979 873 205C873 -79.9789 1104.02 -311 1389 -311C1673.98 -311 1905 -79.9789 1905 205Z" fill="#5956E9"/>
<path d="M187 20.0001C187 81.3037 137.304 131 76 131C14.6964 131 -35 81.3037 -35 20.0001C-35 -41.3035 14.6964 -90.9999 76 -90.9999C137.304 -90.9999 187 -41.3035 187 20.0001Z" fill="#FFDC5F"/>
<path d="M665 635C665 665.376 640.376 690 610 690C579.624 690 555 665.376 555 635C555 604.624 579.624 580 610 580C640.376 580 665 604.624 665 635Z" fill="#FFDC5F"/>
<path d="M796 180C796 193.807 784.807 205 771 205C757.193 205 746 193.807 746 180C746 166.193 757.193 155 771 155C784.807 155 796 166.193 796 180Z" fill="#FFDC5F"/>
<path d="M105 460C105 476.016 92.0163 489 76 489C59.9837 489 47 476.016 47 460C47 443.984 59.9837 431 76 431C92.0163 431 105 443.984 105 460Z" fill="#FAB8C3"/>
</svg>
