<svg width="89" height="19" viewBox="0 0 89 19" fill="none" xmlns="http://www.w3.org/2000/svg">
<path d="M11.928 5.424C11.816 5.312 11.608 5.16 11.304 4.968C11.016 4.776 10.656 4.592 10.224 4.416C9.808 4.224 9.352 4.064 8.856 3.936C8.36 3.808 7.856 3.744 7.344 3.744C6.432 3.744 5.752 3.912 5.304 4.248C4.856 4.584 4.632 5.056 4.632 5.664C4.632 6.016 4.712 6.312 4.872 6.552C5.048 6.776 5.296 6.976 5.616 7.152C5.936 7.328 6.336 7.488 6.816 7.632C7.312 7.776 7.88 7.928 8.52 8.088C9.352 8.312 10.104 8.552 10.776 8.808C11.464 9.064 12.04 9.384 12.504 9.768C12.984 10.152 13.352 10.616 13.608 11.16C13.864 11.688 13.992 12.344 13.992 13.128C13.992 14.04 13.816 14.824 13.464 15.48C13.128 16.12 12.664 16.64 12.072 17.04C11.496 17.44 10.824 17.736 10.056 17.928C9.304 18.104 8.512 18.192 7.68 18.192C6.4 18.192 5.136 18 3.888 17.616C2.64 17.232 1.52 16.688 0.528 15.984L1.992 13.128C2.136 13.272 2.392 13.464 2.76 13.704C3.144 13.928 3.592 14.16 4.104 14.4C4.616 14.624 5.184 14.816 5.808 14.976C6.432 15.136 7.072 15.216 7.728 15.216C9.552 15.216 10.464 14.632 10.464 13.464C10.464 13.096 10.36 12.784 10.152 12.528C9.944 12.272 9.648 12.048 9.264 11.856C8.88 11.664 8.416 11.488 7.872 11.328C7.328 11.168 6.72 10.992 6.048 10.8C5.232 10.576 4.52 10.336 3.912 10.08C3.32 9.808 2.824 9.496 2.424 9.144C2.024 8.776 1.72 8.36 1.512 7.896C1.32 7.416 1.224 6.848 1.224 6.192C1.224 5.328 1.384 4.56 1.704 3.888C2.024 3.216 2.464 2.656 3.024 2.208C3.6 1.76 4.264 1.424 5.016 1.2C5.768 0.959999 6.576 0.839999 7.44 0.839999C8.64 0.839999 9.744 1.032 10.752 1.416C11.76 1.784 12.64 2.224 13.392 2.736L11.928 5.424ZM31.4843 5.424H34.5323L29.2763 18H26.6363L24.4763 12.48L22.3403 18H19.7003L14.4683 5.424H17.4923L21.2363 14.976L22.7723 10.896L20.5643 5.448H23.1563L24.4763 9.312L25.8203 5.448H28.4123L26.2283 10.896L27.7403 14.976L31.4843 5.424ZM41.5038 18.24C40.4958 18.24 39.5838 18.072 38.7678 17.736C37.9518 17.384 37.2558 16.912 36.6798 16.32C36.1038 15.728 35.6558 15.04 35.3358 14.256C35.0318 13.472 34.8798 12.648 34.8798 11.784C34.8798 10.888 35.0318 10.048 35.3358 9.264C35.6398 8.464 36.0798 7.768 36.6558 7.176C37.2318 6.568 37.9278 6.088 38.7438 5.736C39.5758 5.384 40.5038 5.208 41.5278 5.208C42.5518 5.208 43.4638 5.384 44.2638 5.736C45.0798 6.088 45.7678 6.56 46.3278 7.152C46.9038 7.744 47.3358 8.432 47.6238 9.216C47.9278 10 48.0798 10.816 48.0798 11.664C48.0798 11.872 48.0718 12.072 48.0558 12.264C48.0558 12.456 48.0398 12.616 48.0078 12.744H38.2878C38.3358 13.24 38.4558 13.68 38.6478 14.064C38.8398 14.448 39.0878 14.776 39.3918 15.048C39.6958 15.32 40.0398 15.528 40.4238 15.672C40.8078 15.816 41.2078 15.888 41.6238 15.888C42.2638 15.888 42.8638 15.736 43.4238 15.432C43.9998 15.112 44.3918 14.696 44.5998 14.184L47.3598 14.952C46.8958 15.912 46.1518 16.704 45.1278 17.328C44.1198 17.936 42.9118 18.24 41.5038 18.24ZM44.7678 10.656C44.6878 9.712 44.3358 8.96 43.7118 8.4C43.1038 7.824 42.3598 7.536 41.4798 7.536C41.0478 7.536 40.6398 7.616 40.2558 7.776C39.8878 7.92 39.5598 8.128 39.2718 8.4C38.9838 8.672 38.7438 9 38.5518 9.384C38.3758 9.768 38.2718 10.192 38.2398 10.656H44.7678ZM53.571 18.24C52.963 18.24 52.395 18.144 51.867 17.952C51.339 17.744 50.883 17.464 50.499 17.112C50.115 16.744 49.811 16.32 49.587 15.84C49.379 15.36 49.275 14.832 49.275 14.256C49.275 13.664 49.403 13.12 49.659 12.624C49.931 12.112 50.299 11.68 50.763 11.328C51.243 10.976 51.811 10.704 52.467 10.512C53.123 10.304 53.843 10.2 54.627 10.2C55.187 10.2 55.731 10.248 56.259 10.344C56.803 10.44 57.283 10.576 57.699 10.752V10.032C57.699 9.2 57.459 8.56 56.979 8.112C56.515 7.664 55.819 7.44 54.891 7.44C54.219 7.44 53.563 7.56 52.923 7.8C52.283 8.04 51.627 8.392 50.955 8.856L49.971 6.816C51.587 5.744 53.331 5.208 55.203 5.208C57.011 5.208 58.411 5.656 59.403 6.552C60.411 7.432 60.915 8.712 60.915 10.392V14.304C60.915 14.64 60.971 14.88 61.083 15.024C61.211 15.168 61.411 15.248 61.683 15.264V18C61.139 18.112 60.667 18.168 60.267 18.168C59.659 18.168 59.187 18.032 58.851 17.76C58.531 17.488 58.331 17.128 58.251 16.68L58.179 15.984C57.619 16.72 56.939 17.28 56.139 17.664C55.339 18.048 54.483 18.24 53.571 18.24ZM54.483 15.888C55.027 15.888 55.539 15.792 56.019 15.6C56.515 15.408 56.899 15.152 57.171 14.832C57.523 14.56 57.699 14.256 57.699 13.92V12.48C57.315 12.336 56.899 12.224 56.451 12.144C56.003 12.048 55.571 12 55.155 12C54.323 12 53.643 12.192 53.115 12.576C52.587 12.944 52.323 13.416 52.323 13.992C52.323 14.536 52.531 14.992 52.947 15.36C53.363 15.712 53.875 15.888 54.483 15.888ZM67.0761 18L62.4441 5.424H65.7561L68.9481 15.384L72.1641 5.424H75.1881L70.5561 18H67.0761ZM80.0913 18.24C79.4833 18.24 78.9153 18.144 78.3873 17.952C77.8593 17.744 77.4033 17.464 77.0193 17.112C76.6353 16.744 76.3313 16.32 76.1073 15.84C75.8993 15.36 75.7953 14.832 75.7953 14.256C75.7953 13.664 75.9233 13.12 76.1793 12.624C76.4513 12.112 76.8193 11.68 77.2833 11.328C77.7633 10.976 78.3313 10.704 78.9873 10.512C79.6433 10.304 80.3633 10.2 81.1473 10.2C81.7073 10.2 82.2513 10.248 82.7793 10.344C83.3233 10.44 83.8033 10.576 84.2193 10.752V10.032C84.2193 9.2 83.9793 8.56 83.4993 8.112C83.0353 7.664 82.3393 7.44 81.4113 7.44C80.7393 7.44 80.0833 7.56 79.4433 7.8C78.8033 8.04 78.1473 8.392 77.4753 8.856L76.4913 6.816C78.1073 5.744 79.8513 5.208 81.7233 5.208C83.5313 5.208 84.9313 5.656 85.9233 6.552C86.9313 7.432 87.4353 8.712 87.4353 10.392V14.304C87.4353 14.64 87.4913 14.88 87.6033 15.024C87.7313 15.168 87.9313 15.248 88.2033 15.264V18C87.6593 18.112 87.1873 18.168 86.7873 18.168C86.1793 18.168 85.7073 18.032 85.3713 17.76C85.0513 17.488 84.8513 17.128 84.7713 16.68L84.6993 15.984C84.1393 16.72 83.4593 17.28 82.6593 17.664C81.8593 18.048 81.0033 18.24 80.0913 18.24ZM81.0033 15.888C81.5473 15.888 82.0593 15.792 82.5393 15.6C83.0353 15.408 83.4193 15.152 83.6913 14.832C84.0433 14.56 84.2193 14.256 84.2193 13.92V12.48C83.8353 12.336 83.4193 12.224 82.9713 12.144C82.5233 12.048 82.0913 12 81.6753 12C80.8433 12 80.1633 12.192 79.6353 12.576C79.1073 12.944 78.8433 13.416 78.8433 13.992C78.8433 14.536 79.0513 14.992 79.4673 15.36C79.8833 15.712 80.3953 15.888 81.0033 15.888Z" fill="black"/>
</svg>
